<mxfile host="app.diagrams.net" modified="2024-01-21T18:24:15.602Z" agent="Mozilla/5.0 (Windows NT 10.0; Win64; x64) AppleWebKit/537.36 (KHTML, like Gecko) Chrome/120.0.0.0 Safari/537.36" etag="Go3bEexjBGMzIY2MONhw" version="22.1.21" type="device" pages="2">
  <diagram name="Usage" id="sy3ruXGqvmMaTXinEDGg">
    <mxGraphModel dx="1105" dy="549" grid="0" gridSize="10" guides="1" tooltips="1" connect="1" arrows="1" fold="1" page="1" pageScale="1" pageWidth="827" pageHeight="569" math="0" shadow="0">
      <root>
        <mxCell id="0" />
        <mxCell id="1" parent="0" />
        <mxCell id="qvW-0COVR-i1KA_fGBMN-1" value="&lt;b&gt;&lt;font style=&quot;font-size: 30px;&quot;&gt;What&#39;s SQL used for?&lt;/font&gt;&lt;/b&gt;" style="text;strokeColor=none;align=center;fillColor=none;html=1;verticalAlign=middle;whiteSpace=wrap;rounded=0;" vertex="1" parent="1">
          <mxGeometry x="240" y="10" width="347" height="30" as="geometry" />
        </mxCell>
        <mxCell id="qvW-0COVR-i1KA_fGBMN-2" value="" style="shape=image;verticalLabelPosition=bottom;labelBackgroundColor=default;verticalAlign=top;aspect=fixed;imageAspect=0;image=data:image/png,iVBORw0KGgoAAAANSUhEUgAAAGQAAABkCAYAAABw4pVUAAAAIGNIUk0AAHomAACAhAAA+gAAAIDoAAB1MAAA6mAAADqYAAAXcJy6UTwAAAAGYktHRAD/AP8A/6C9p5MAAAAHdElNRQfoARUPHiCIF+V4AAAQOElEQVR42u2ceXAU1b7HP90zk1myMpOQzCRhi0AWlYeg91YBjzJcfTxLyrr+4VaUz7KuUJZVWC7IUpZFqf8QLPV5q5RAFH3+8eqp4MK916dPCIhCSNRgZImGrJB9m0yWWbvP+6OTIYGEJJNAmut8qyapmulz+nfOp79n7W5JCCGISjeSZzqAqEYqCkRnigLRmaJAdKYoEJ0pCkRnigLRmaJAdKYoEJ0pCkRnigLRmaJAdKYoEJ0pCkRnigLRmaJAdKYoEJ3phgEyEFAIhNRxj+vqD/J/v3Rx5mI/AIGQykBAmenwJyzjTAcwEZXX93KgrB17rIn/WJWGPc406nFCwKdl7XxV0YUzycyGfBffnO6ioy/I/bensHRu/EwXZVzp3iHldb0UFTfza9MAZdUe6jp8Yx7b0hOgvK4PCQipguo2L6XVvfzaNEBRcTPldb0zXZxxpWsg5fW9FB1ppqM3iCTBIqeNucmWMY+vaOijsy+IABamWflDVgIL06xIEnT0Bik6on8ougVyqr6Pd4s1GCBYlGbjL3e6cIzRXPmCKmU1HhRVYDLILJ+fQGpiDH+508WiNBsg6OgN8u6RZk7V98108caULoH8XN9HUXET7cNgbFyTTobdPGaaunYfNW1eJAmcSTHkZdgAyLCb2bgmPQylvTdIUXETP+sUiu6A/NzQR9GRSzAWptnYkH91GAA/1Hro92ujqSVz45gVe8lJGXYzG/LTWTgcypEmfm7QHxRdAalo0JzR5tFg3JRqY2O+i0zH1WF094fCzVCs2cDyBVeOpjIdZjbmu7gpVYPS5tGcUqEzKLoBUtHQx97LYaxxkemwjJv2bGM/ze4AQsCC2Vbmp1hHPS7TYWHjmpFQ9uoMii6AVFwY6Yys2VY25LuYMwEYiiooq/YQDKkYZInlC+KxmMYu1hyHhY35LrJm69MpMw7kfKuXouJmWj3a0FZzRvpVh7fDdbHLT2XTAJIEjjgTS+aMP/mbk3zJKZIErR5tSFzd6p3p6ph5IJVN/bS4/cgSGGWJu2+1TxgGaBNH90AIISAvI5bUxJgJpZubbOHfbrVjlCVkCVrcfs419c90dcw8kFsy45jjsKAKQUgV/KO8k/MTvFL7/Qo/1vUihMBskrk9KwFZmth5z7d6+Xt5JyFVoArBHIeFWzLjZro6Zh7I3GQLT+S7yLBbEEJQ1+Flz6HGCTUfVS1eGgaXUjLtFhY7bRM6Z3Wrlz2HG6nr8CKEIMOuxTAZZ14rzTgQgMVOGxvyXaTP0oa39Z0+Cg9fHYoAymo8eAMqSBK3zY8j3mIY91zVrV4KDzdSPwgyfZa2CDlRmNdaugACQ1DSL0HpGITSNjqUdk+A0xf6kSRIsBq4bd74nXl122gw0nUDA3QEBCDbpUFxDYOy51ATNaNAqWjop92jzT0WO23jzldq2rzsOdQUhuEahJHt0g8M0BkQGILiwpWkQanr8FJ4GZRASOWHGg8hVWA0SNy+IAGTYezevKZNy6OuQ8vDlaRPGKBDIAA5rlieyHfhHANKfYePqlZtITE1MYa8jNgx8xodhoscHcIAnQIByE2PZcNlUIqKm2j3BPmptpc+nwICbs2MIzl+9CX5Nk+AouJLMJxJZp7Id5GTHjvhOK63dAsEBqHcqUFRheaMyqZ+frnYjxACa4yB2xckjJn+YpefunYfqiC8pZurYxhwA+yp52bEsjHfxac/dGCPM7IwzcaxX90AZKfbyEq1jpk2a7aVVdlJdPUH+fPyFN3DAJBulOfUAyEVWZYwyhKN3X7Ot3hZ7LKRNs5SSUgVqKogxqjrxiCsGwbI70U3xmXzO1IUiM4UBaIzRYHoTLof9l5PKYqCECL8iVQmkwlJmuDGzGWKGEhnZyfHjx/nzjvvJC7u+m7snDhxArPZzG233RZxHj09PdTV1VFVVUVNTQ2NjY309PQQCATCYCYrRVFwOp28/PLL2O32iOKKGEh/fz87duzg448/5oUXXuDmm2+OuHImKrfbzXvvvUdhYSHbt2+fNBBFUTh9+jQHDx7kyJEj1NTU4PF4CAaDU3LEkFRVZeHChfj9/ojziBiIJEkEg0E+/fRTKioq2LRpEw899BA227VZtCspKaGgoICjR4+iKAqyPLnur6qqit27d3Pw4EFaW1sBkGUZSZIwGMbf2JqIVFWddFyXa0p9yFBh6urq2Lp1K8eOHeP5558nLy9vWgoII13R0tKCwWCYdKEPHjzIq6++SmVlJbIsXwFgOvoN0ByoKFN7FmVaOnVZlgkGgxw4cIDy8nKefvppHnzwwSm75eTJkxQUFHDkyBEURYnoSv7oo4/Ytm0bHR0dI9KrqoqqqphMJhITE0lKSiI+Ph6r1TqlqzwjI4OYmInd+TKapm2UNdwtW7Zs4dtvv43YLW63m3379lFYWEhzc3NErgD47rvveOmll+js7AzDGHLB/PnzWbVqFStWrGDx4sWkpKQQGxuL0WiMeIQkSRKyLGM2myNKD9dg2DtVt0yHK0CDumvXLpqamjAatWKqqkpycjKPP/44Dz/8MPPmzYu48q+Vrsk85HK3DPUtubm5V63A999/n927d1/hCiHEpCvu0KFDnDhxYgSMjIwMXnvtNdauXXu96nfSmlYgZrOZQCCAqqph+waDQfbv3z/CLVbryD2M0tJSCgoKKC4uvsIVqqpis9nw+/0T7nQVReHLL7/E5/NhNBoRQmCxWNi+ffukYHi9Xvr7J3c3oyzLJCUlRdwPTRsQRVG46667yM3NpaioiPb2dgwGQ9gttbW1Ybc899xz5Obm0tPTw759+0Z1xVCHe++997JkyRJ27dpFIBCYUCxdXV2cOXNmRF7Lli1j3bp1kyrTZ599xptvvjnhyhVC4HK5eOedd0hNTZ1ZIEIIHA4HW7duZcWKFRQUFPD999+HmxtZlgkEAnzyySecOnWKRx55hJMnT3Lo0KErXKEoCpmZmTz11FM89thjlJSUTCqW7u5uurq6ws2cEIJly5YRHz+5p3C7uro4e/ZseL4ynhRFwev1EgqFIq7HaW2yhpqUVatWkZuby969e0d1S3V1Na+88gqgWfxyV6xdu5bNmzezdOnScEEno1AoNCKNJEmThjGUbrIjPJPJNKVh8zVbXBxyy8qVK9m5c+cVbrlcw12xfv36iCpwSDabDYvFEj6fEILm5uZJ56OqKqFQ6KoVPPyCAsYs30R1zVd7V65cSU5ODnv27OHdd98Nu2V4oUdzxVRkt9tJS0vjwoUL4UorKSmhubkZp9M54XxycnJYv379VSu4tLSU8+fPh4+Z6jD6uiy/OxwOtm3bFnbL8ePHUVUVIcS0uWK4EhISWL58OaWlpYAGpLKyksLCQl588cXwUHg8rVmzhvz8/DF/lySJTZs28dtvv13hkkh1XTeoVq1axQcffMDmzZtxOp3cc889fPjhhzz55JPTBmNI69atY9asWeF+TQjBnj172LlzJ263e8L5SJI05mcsTWVN7LrvGDocDrZs2cKBAwfYvXv3tDRRo+mOO+7gvvvuQ1W1F9ZIkoTX6+WNN97g0UcfZf/+/bS2tk55QXG6Z/ozsmMoyzI5OTnX9Bwmk4lnn32WM2fOUFZWFl6jUlWVo0ePUlJSQlZWFkuXLiUvL485c+aQnJyMxWKZ8OKgJEl0d3dPK5R/6i3cefPm8frrr/PMM8/w448/jtj/CIVCnDt3LjyBNJlMmM1mjEbjpNbPBgYGRhw/Vcf9UwMBWLJkCXv37mXnzp188cUX4QocGp4OdcaKokx6mQSmv8n6Xdx1kpWVxVtvvcXbb79Nfn4+sbGx4c2kodEeXL0Dn2jHPrTPEqmm5JDhJ59qIFeTEGLK+VssFu6//37uvvtufvrpJ4qLiykrK6O2tha3243f7w8veUTa7KiqGvENEkOK+N7evr4+Pv/8c3p7e8OdZW5uLqtXr444mLHU0NDAV199NQLI6tWryc7OnlK+AwMDtLS00NTURGtrK93d3fh8vohvehBCkJSUxAMPPBDxMD56s7XO9LvoQ24kRYHoTFEgOlMUiM4UBaIzTWkeUtPmpd+vkpdho2dAobrVyyKnlQSrlq3HG6Kqxctip424wfeQNLsDdPUFyU2PxeMN0eYJcFOaDW9ApaHDx8I0K519QQb8KvNSLHi8ISqbBggpgkyHhUyHmWZ3gKCijvmCs4ZOH7VtPpJijWQ7bZhNMoGQytnGAQb8CvY4E9kuGx5viJo2H9kuG7IE1W0+smZb8QYUKpsGEIDZKJGXEYc3oGixptoIKirVbV4WpFgxm2SEgKqWATr6gliMMnmZsZgjfKYxYocIAf841cnubxpp7Qny3a9u/vr1xREvjCk576HwcCM/1F56V255XS//+b8XqGzqp6HTz9/KOxFC0Nkb5EBZO/6gyukL/Rw+061VboefT0rbqOvw0TOgTdx+quvlWGXPqHFVNPTxX8daaHb7OXrOzfGqnsGLQ+F/SlqpbBqgo1e7WaKxy89fv77I0XNuen0KB8ra6POF8IdUKi708d/HW6lt9yGEoL7Dx9/KO1GF0I4tbcfj1baJVSH4+6lOTp730NwTIKTMwPK7ogoCIYE93khZjYfadh/OpBjtgX7AH1SpbBpgTZ6dsxf7CQ4LMjnexOGzbjzewZsBhPZn+JRIIML/jbLE7AQTsxNN4Yth6PfLdbyqhzsWJPDn5Sn8a3YSyfEm1MFDZUnCHmcMv0tFFVosp+p7qWv3hb+bnRDD3bfYSUuK4d+XOMIuCIcnGMxzWLxCewlO+iwz1pjIe4KIUwYVQVBR+UNWIt//2oMkwcI0G55BIPUdPi50+pCA2nYvF7v8gwUW5KbHkhJv4ug5t5aZpP1RBSBJqGJkdSsq9PkUFPXStxJXriOJwYoxGSV6vCFOnu9hf2k7fT4FSdLO3e9XCYSGNq0gNSGG5QsS+PqXrvD3Q78NxTuaJAnky96W5g2oeAMKU5lqRwwkEFIJKoJsl41Ys8yiNBvJ8aawQ8rr+8h0WJgVa8Q5y8yp+t5wQWVZ4k83z8I9EMIfVBECEm0GjAaJA2VtlNX0kmkf2T9IkkTvYBMhSVqb/c3pbgb8w+4uAW5fkMD3v/VQWu0ZjFOMcJNBJhzjUIX/8aYEbDEy3X3aex8vhxKGPZSPpL3N7quKLs63esOLjAZZwh9UR4CdrAw7duzYEWniRJuRrNlW5jgsLHLacMQZSY43YY8zoaiClYsSuTkzjqxUK2ajTGpiDBaTTFpiDBl2C3OStY8zyYzFJDMvxUqfTyHbZeOPCxMxGiRMBolYiwFZknAM5m0xyVhMBsxGmQy7ZcSbgJxJZlITY+juD7FgtpV/mReHMykGk0EmzqzlE2814EwyYzRIOOJjyHRYmJdsxWU3MzfZgtEgYZC15i19lhlZ1uJIToghLdGMQZaINRsxGCRSBmOyxhgwGWVijDIZdi3vSBRdy9KZovMQnSkKRGeKAtGZokB0pigQnSkKRGeKAtGZokB0pigQnSkKRGeKAtGZokB0pigQnSkKRGeKAtGZokB0pigQnen/AUT6f4UtKsg3AAAAJXRFWHRkYXRlOmNyZWF0ZQAyMDI0LTAxLTIxVDE1OjMwOjE0KzAwOjAw3KxkFQAAACV0RVh0ZGF0ZTptb2RpZnkAMjAyNC0wMS0yMVQxNTozMDoxNCswMDowMK3x3KkAAAAodEVYdGRhdGU6dGltZXN0YW1wADIwMjQtMDEtMjFUMTU6MzA6MzIrMDA6MDDbEc8xAAAAAElFTkSuQmCC;" vertex="1" parent="1">
          <mxGeometry x="364" y="469" width="100" height="100" as="geometry" />
        </mxCell>
        <mxCell id="qvW-0COVR-i1KA_fGBMN-3" value="&lt;b&gt;&lt;font style=&quot;font-size: 20px;&quot;&gt;SQL -&amp;nbsp;Structured Query Language&lt;/font&gt;&lt;/b&gt;" style="text;strokeColor=none;align=center;fillColor=none;html=1;verticalAlign=middle;whiteSpace=wrap;rounded=0;fontSize=17;" vertex="1" parent="1">
          <mxGeometry x="250" y="80" width="327" height="30" as="geometry" />
        </mxCell>
        <mxCell id="qvW-0COVR-i1KA_fGBMN-4" value="&lt;div&gt;&lt;font style=&quot;font-size: 20px;&quot;&gt;It&#39;s a programming language used for managing data kept in a RDBMS (Relational DataBase Management System)&lt;/font&gt;&lt;/div&gt;" style="text;strokeColor=none;align=center;fillColor=none;html=1;verticalAlign=middle;whiteSpace=wrap;rounded=0;" vertex="1" parent="1">
          <mxGeometry x="58" y="156" width="740" height="30" as="geometry" />
        </mxCell>
        <mxCell id="qvW-0COVR-i1KA_fGBMN-5" value="" style="image;html=1;image=img/lib/clip_art/computers/Database_128x128.png" vertex="1" parent="1">
          <mxGeometry x="374" y="231" width="80" height="80" as="geometry" />
        </mxCell>
        <mxCell id="qvW-0COVR-i1KA_fGBMN-6" value="&lt;font style=&quot;font-size: 20px;&quot;&gt;Despite being an ANSI and ISO standard,&amp;nbsp;each RDBMS has its own extension, Oracle has PL/SQL, PostgreSQL has PL/pgSQL, Microsoft has T-SQL, and so on.&lt;/font&gt;" style="text;strokeColor=none;align=left;fillColor=none;html=1;verticalAlign=middle;whiteSpace=wrap;rounded=0;" vertex="1" parent="1">
          <mxGeometry x="77" y="363" width="680" height="70" as="geometry" />
        </mxCell>
      </root>
    </mxGraphModel>
  </diagram>
  <diagram id="nz_SWWQhiLtPfDNrg9hB" name="Types">
    <mxGraphModel dx="1050" dy="522" grid="0" gridSize="10" guides="1" tooltips="1" connect="1" arrows="1" fold="1" page="1" pageScale="1" pageWidth="827" pageHeight="569" math="0" shadow="0">
      <root>
        <mxCell id="0" />
        <mxCell id="1" parent="0" />
        <mxCell id="LJQ_e0ICdPB0Gf7lJMn_-1" value="&lt;b&gt;&lt;font style=&quot;font-size: 30px;&quot;&gt;Types of SQL commands&lt;/font&gt;&lt;/b&gt;" style="text;strokeColor=none;align=center;fillColor=none;html=1;verticalAlign=middle;whiteSpace=wrap;rounded=0;" vertex="1" parent="1">
          <mxGeometry x="217" y="10" width="394" height="30" as="geometry" />
        </mxCell>
        <mxCell id="rUUnXO_9m0FR7AYS83om-2" value="&lt;b&gt;&lt;font style=&quot;font-size: 20px;&quot;&gt;DDL&lt;/font&gt;&lt;/b&gt;" style="rounded=1;whiteSpace=wrap;html=1;labelBackgroundColor=default;" vertex="1" parent="1">
          <mxGeometry x="40" y="80" width="120" height="50" as="geometry" />
        </mxCell>
        <mxCell id="rUUnXO_9m0FR7AYS83om-4" value="&lt;b&gt;&lt;font style=&quot;font-size: 20px;&quot;&gt;Data Definition Language&lt;/font&gt;&lt;/b&gt;" style="text;strokeColor=none;align=center;fillColor=none;html=1;verticalAlign=middle;whiteSpace=wrap;rounded=0;" vertex="1" parent="1">
          <mxGeometry x="198" y="70" width="252" height="30" as="geometry" />
        </mxCell>
        <mxCell id="rUUnXO_9m0FR7AYS83om-5" value="&lt;font style=&quot;font-size: 17px;&quot;&gt;It&#39;s used for create and modify the DB structure and its objects.&lt;br&gt;Commands are CREATE, DROP, ALTER, TRUNCATE and RENAME&lt;/font&gt;" style="text;strokeColor=none;align=left;fillColor=none;html=1;verticalAlign=middle;whiteSpace=wrap;rounded=0;" vertex="1" parent="1">
          <mxGeometry x="198" y="101" width="622" height="30" as="geometry" />
        </mxCell>
        <mxCell id="rUUnXO_9m0FR7AYS83om-6" value="&lt;b style=&quot;border-color: var(--border-color);&quot;&gt;&lt;font style=&quot;border-color: var(--border-color); font-size: 20px;&quot;&gt;DML&lt;/font&gt;&lt;/b&gt;" style="rounded=1;whiteSpace=wrap;html=1;" vertex="1" parent="1">
          <mxGeometry x="40" y="160" width="120" height="50" as="geometry" />
        </mxCell>
        <mxCell id="rUUnXO_9m0FR7AYS83om-7" value="&lt;b&gt;&lt;font style=&quot;font-size: 20px;&quot;&gt;Data Manipulation Language&lt;/font&gt;&lt;/b&gt;" style="text;strokeColor=none;align=center;fillColor=none;html=1;verticalAlign=middle;whiteSpace=wrap;rounded=0;" vertex="1" parent="1">
          <mxGeometry x="198" y="150" width="282" height="30" as="geometry" />
        </mxCell>
        <mxCell id="rUUnXO_9m0FR7AYS83om-8" value="&lt;font style=&quot;font-size: 17px;&quot;&gt;It&#39;s used inserting, updating and deleting data in a DB, so we have INSERT, UPDATE and DELETE&lt;/font&gt;" style="text;strokeColor=none;align=left;fillColor=none;html=1;verticalAlign=middle;whiteSpace=wrap;rounded=0;" vertex="1" parent="1">
          <mxGeometry x="198" y="181" width="552" height="30" as="geometry" />
        </mxCell>
        <mxCell id="rUUnXO_9m0FR7AYS83om-15" value="&lt;b&gt;&lt;font style=&quot;font-size: 20px;&quot;&gt;DCL&lt;/font&gt;&lt;/b&gt;" style="rounded=1;whiteSpace=wrap;html=1;" vertex="1" parent="1">
          <mxGeometry x="40" y="240" width="120" height="50" as="geometry" />
        </mxCell>
        <mxCell id="rUUnXO_9m0FR7AYS83om-16" value="&lt;b&gt;&lt;font style=&quot;font-size: 20px;&quot;&gt;Data Control Language&lt;/font&gt;&lt;/b&gt;" style="text;strokeColor=none;align=center;fillColor=none;html=1;verticalAlign=middle;whiteSpace=wrap;rounded=0;" vertex="1" parent="1">
          <mxGeometry x="193" y="230" width="240" height="30" as="geometry" />
        </mxCell>
        <mxCell id="rUUnXO_9m0FR7AYS83om-17" value="&lt;font style=&quot;font-size: 17px;&quot;&gt;It&#39;s used for managing rights and permissions, indeed we can find GRANT and REVOKE&lt;/font&gt;" style="text;strokeColor=none;align=left;fillColor=none;html=1;verticalAlign=middle;whiteSpace=wrap;rounded=0;" vertex="1" parent="1">
          <mxGeometry x="198" y="261" width="502" height="30" as="geometry" />
        </mxCell>
        <mxCell id="rUUnXO_9m0FR7AYS83om-18" value="&lt;b style=&quot;border-color: var(--border-color);&quot;&gt;&lt;font style=&quot;border-color: var(--border-color); font-size: 20px;&quot;&gt;TCL&lt;/font&gt;&lt;/b&gt;" style="rounded=1;whiteSpace=wrap;html=1;" vertex="1" parent="1">
          <mxGeometry x="40" y="320" width="120" height="50" as="geometry" />
        </mxCell>
        <mxCell id="rUUnXO_9m0FR7AYS83om-19" value="&lt;b&gt;&lt;font style=&quot;font-size: 20px;&quot;&gt;Transaction Control Language&lt;/font&gt;&lt;/b&gt;" style="text;strokeColor=none;align=center;fillColor=none;html=1;verticalAlign=middle;whiteSpace=wrap;rounded=0;" vertex="1" parent="1">
          <mxGeometry x="197" y="310" width="300" height="30" as="geometry" />
        </mxCell>
        <mxCell id="rUUnXO_9m0FR7AYS83om-20" value="&lt;font style=&quot;font-size: 17px;&quot;&gt;It&#39;s used for handling the transaction, its commands are COMMIT and ROLLBACK&lt;/font&gt;" style="text;strokeColor=none;align=left;fillColor=none;html=1;verticalAlign=middle;whiteSpace=wrap;rounded=0;" vertex="1" parent="1">
          <mxGeometry x="200" y="342" width="450" height="30" as="geometry" />
        </mxCell>
        <mxCell id="07rjTWdw01PEE4L0MTJS-1" value="" style="shape=image;verticalLabelPosition=bottom;labelBackgroundColor=default;verticalAlign=top;aspect=fixed;imageAspect=0;image=data:image/png,iVBORw0KGgoAAAANSUhEUgAAAGQAAABkCAYAAABw4pVUAAAAIGNIUk0AAHomAACAhAAA+gAAAIDoAAB1MAAA6mAAADqYAAAXcJy6UTwAAAAGYktHRAD/AP8A/6C9p5MAAAAHdElNRQfoARUPHiCIF+V4AAAQOElEQVR42u2ceXAU1b7HP90zk1myMpOQzCRhi0AWlYeg91YBjzJcfTxLyrr+4VaUz7KuUJZVWC7IUpZFqf8QLPV5q5RAFH3+8eqp4MK916dPCIhCSNRgZImGrJB9m0yWWbvP+6OTIYGEJJNAmut8qyapmulz+nfOp79n7W5JCCGISjeSZzqAqEYqCkRnigLRmaJAdKYoEJ0pCkRnigLRmaJAdKYoEJ0pCkRnigLRmaJAdKYoEJ0pCkRnigLRmaJAdKYoEJ3phgEyEFAIhNRxj+vqD/J/v3Rx5mI/AIGQykBAmenwJyzjTAcwEZXX93KgrB17rIn/WJWGPc406nFCwKdl7XxV0YUzycyGfBffnO6ioy/I/bensHRu/EwXZVzp3iHldb0UFTfza9MAZdUe6jp8Yx7b0hOgvK4PCQipguo2L6XVvfzaNEBRcTPldb0zXZxxpWsg5fW9FB1ppqM3iCTBIqeNucmWMY+vaOijsy+IABamWflDVgIL06xIEnT0Bik6on8ougVyqr6Pd4s1GCBYlGbjL3e6cIzRXPmCKmU1HhRVYDLILJ+fQGpiDH+508WiNBsg6OgN8u6RZk7V98108caULoH8XN9HUXET7cNgbFyTTobdPGaaunYfNW1eJAmcSTHkZdgAyLCb2bgmPQylvTdIUXETP+sUiu6A/NzQR9GRSzAWptnYkH91GAA/1Hro92ujqSVz45gVe8lJGXYzG/LTWTgcypEmfm7QHxRdAalo0JzR5tFg3JRqY2O+i0zH1WF094fCzVCs2cDyBVeOpjIdZjbmu7gpVYPS5tGcUqEzKLoBUtHQx97LYaxxkemwjJv2bGM/ze4AQsCC2Vbmp1hHPS7TYWHjmpFQ9uoMii6AVFwY6Yys2VY25LuYMwEYiiooq/YQDKkYZInlC+KxmMYu1hyHhY35LrJm69MpMw7kfKuXouJmWj3a0FZzRvpVh7fDdbHLT2XTAJIEjjgTS+aMP/mbk3zJKZIErR5tSFzd6p3p6ph5IJVN/bS4/cgSGGWJu2+1TxgGaBNH90AIISAvI5bUxJgJpZubbOHfbrVjlCVkCVrcfs419c90dcw8kFsy45jjsKAKQUgV/KO8k/MTvFL7/Qo/1vUihMBskrk9KwFZmth5z7d6+Xt5JyFVoArBHIeFWzLjZro6Zh7I3GQLT+S7yLBbEEJQ1+Flz6HGCTUfVS1eGgaXUjLtFhY7bRM6Z3Wrlz2HG6nr8CKEIMOuxTAZZ14rzTgQgMVOGxvyXaTP0oa39Z0+Cg9fHYoAymo8eAMqSBK3zY8j3mIY91zVrV4KDzdSPwgyfZa2CDlRmNdaugACQ1DSL0HpGITSNjqUdk+A0xf6kSRIsBq4bd74nXl122gw0nUDA3QEBCDbpUFxDYOy51ATNaNAqWjop92jzT0WO23jzldq2rzsOdQUhuEahJHt0g8M0BkQGILiwpWkQanr8FJ4GZRASOWHGg8hVWA0SNy+IAGTYezevKZNy6OuQ8vDlaRPGKBDIAA5rlieyHfhHANKfYePqlZtITE1MYa8jNgx8xodhoscHcIAnQIByE2PZcNlUIqKm2j3BPmptpc+nwICbs2MIzl+9CX5Nk+AouJLMJxJZp7Id5GTHjvhOK63dAsEBqHcqUFRheaMyqZ+frnYjxACa4yB2xckjJn+YpefunYfqiC8pZurYxhwA+yp52bEsjHfxac/dGCPM7IwzcaxX90AZKfbyEq1jpk2a7aVVdlJdPUH+fPyFN3DAJBulOfUAyEVWZYwyhKN3X7Ot3hZ7LKRNs5SSUgVqKogxqjrxiCsGwbI70U3xmXzO1IUiM4UBaIzRYHoTLof9l5PKYqCECL8iVQmkwlJmuDGzGWKGEhnZyfHjx/nzjvvJC7u+m7snDhxArPZzG233RZxHj09PdTV1VFVVUVNTQ2NjY309PQQCATCYCYrRVFwOp28/PLL2O32iOKKGEh/fz87duzg448/5oUXXuDmm2+OuHImKrfbzXvvvUdhYSHbt2+fNBBFUTh9+jQHDx7kyJEj1NTU4PF4CAaDU3LEkFRVZeHChfj9/ojziBiIJEkEg0E+/fRTKioq2LRpEw899BA227VZtCspKaGgoICjR4+iKAqyPLnur6qqit27d3Pw4EFaW1sBkGUZSZIwGMbf2JqIVFWddFyXa0p9yFBh6urq2Lp1K8eOHeP5558nLy9vWgoII13R0tKCwWCYdKEPHjzIq6++SmVlJbIsXwFgOvoN0ByoKFN7FmVaOnVZlgkGgxw4cIDy8nKefvppHnzwwSm75eTJkxQUFHDkyBEURYnoSv7oo4/Ytm0bHR0dI9KrqoqqqphMJhITE0lKSiI+Ph6r1TqlqzwjI4OYmInd+TKapm2UNdwtW7Zs4dtvv43YLW63m3379lFYWEhzc3NErgD47rvveOmll+js7AzDGHLB/PnzWbVqFStWrGDx4sWkpKQQGxuL0WiMeIQkSRKyLGM2myNKD9dg2DtVt0yHK0CDumvXLpqamjAatWKqqkpycjKPP/44Dz/8MPPmzYu48q+Vrsk85HK3DPUtubm5V63A999/n927d1/hCiHEpCvu0KFDnDhxYgSMjIwMXnvtNdauXXu96nfSmlYgZrOZQCCAqqph+waDQfbv3z/CLVbryD2M0tJSCgoKKC4uvsIVqqpis9nw+/0T7nQVReHLL7/E5/NhNBoRQmCxWNi+ffukYHi9Xvr7J3c3oyzLJCUlRdwPTRsQRVG46667yM3NpaioiPb2dgwGQ9gttbW1Ybc899xz5Obm0tPTw759+0Z1xVCHe++997JkyRJ27dpFIBCYUCxdXV2cOXNmRF7Lli1j3bp1kyrTZ599xptvvjnhyhVC4HK5eOedd0hNTZ1ZIEIIHA4HW7duZcWKFRQUFPD999+HmxtZlgkEAnzyySecOnWKRx55hJMnT3Lo0KErXKEoCpmZmTz11FM89thjlJSUTCqW7u5uurq6ws2cEIJly5YRHz+5p3C7uro4e/ZseL4ynhRFwev1EgqFIq7HaW2yhpqUVatWkZuby969e0d1S3V1Na+88gqgWfxyV6xdu5bNmzezdOnScEEno1AoNCKNJEmThjGUbrIjPJPJNKVh8zVbXBxyy8qVK9m5c+cVbrlcw12xfv36iCpwSDabDYvFEj6fEILm5uZJ56OqKqFQ6KoVPPyCAsYs30R1zVd7V65cSU5ODnv27OHdd98Nu2V4oUdzxVRkt9tJS0vjwoUL4UorKSmhubkZp9M54XxycnJYv379VSu4tLSU8+fPh4+Z6jD6uiy/OxwOtm3bFnbL8ePHUVUVIcS0uWK4EhISWL58OaWlpYAGpLKyksLCQl588cXwUHg8rVmzhvz8/DF/lySJTZs28dtvv13hkkh1XTeoVq1axQcffMDmzZtxOp3cc889fPjhhzz55JPTBmNI69atY9asWeF+TQjBnj172LlzJ263e8L5SJI05mcsTWVN7LrvGDocDrZs2cKBAwfYvXv3tDRRo+mOO+7gvvvuQ1W1F9ZIkoTX6+WNN97g0UcfZf/+/bS2tk55QXG6Z/ozsmMoyzI5OTnX9Bwmk4lnn32WM2fOUFZWFl6jUlWVo0ePUlJSQlZWFkuXLiUvL485c+aQnJyMxWKZ8OKgJEl0d3dPK5R/6i3cefPm8frrr/PMM8/w448/jtj/CIVCnDt3LjyBNJlMmM1mjEbjpNbPBgYGRhw/Vcf9UwMBWLJkCXv37mXnzp188cUX4QocGp4OdcaKokx6mQSmv8n6Xdx1kpWVxVtvvcXbb79Nfn4+sbGx4c2kodEeXL0Dn2jHPrTPEqmm5JDhJ59qIFeTEGLK+VssFu6//37uvvtufvrpJ4qLiykrK6O2tha3243f7w8veUTa7KiqGvENEkOK+N7evr4+Pv/8c3p7e8OdZW5uLqtXr444mLHU0NDAV199NQLI6tWryc7OnlK+AwMDtLS00NTURGtrK93d3fh8vohvehBCkJSUxAMPPBDxMD56s7XO9LvoQ24kRYHoTFEgOlMUiM4UBaIzTWkeUtPmpd+vkpdho2dAobrVyyKnlQSrlq3HG6Kqxctip424wfeQNLsDdPUFyU2PxeMN0eYJcFOaDW9ApaHDx8I0K519QQb8KvNSLHi8ISqbBggpgkyHhUyHmWZ3gKCijvmCs4ZOH7VtPpJijWQ7bZhNMoGQytnGAQb8CvY4E9kuGx5viJo2H9kuG7IE1W0+smZb8QYUKpsGEIDZKJGXEYc3oGixptoIKirVbV4WpFgxm2SEgKqWATr6gliMMnmZsZgjfKYxYocIAf841cnubxpp7Qny3a9u/vr1xREvjCk576HwcCM/1F56V255XS//+b8XqGzqp6HTz9/KOxFC0Nkb5EBZO/6gyukL/Rw+061VboefT0rbqOvw0TOgTdx+quvlWGXPqHFVNPTxX8daaHb7OXrOzfGqnsGLQ+F/SlqpbBqgo1e7WaKxy89fv77I0XNuen0KB8ra6POF8IdUKi708d/HW6lt9yGEoL7Dx9/KO1GF0I4tbcfj1baJVSH4+6lOTp730NwTIKTMwPK7ogoCIYE93khZjYfadh/OpBjtgX7AH1SpbBpgTZ6dsxf7CQ4LMjnexOGzbjzewZsBhPZn+JRIIML/jbLE7AQTsxNN4Yth6PfLdbyqhzsWJPDn5Sn8a3YSyfEm1MFDZUnCHmcMv0tFFVosp+p7qWv3hb+bnRDD3bfYSUuK4d+XOMIuCIcnGMxzWLxCewlO+iwz1pjIe4KIUwYVQVBR+UNWIt//2oMkwcI0G55BIPUdPi50+pCA2nYvF7v8gwUW5KbHkhJv4ug5t5aZpP1RBSBJqGJkdSsq9PkUFPXStxJXriOJwYoxGSV6vCFOnu9hf2k7fT4FSdLO3e9XCYSGNq0gNSGG5QsS+PqXrvD3Q78NxTuaJAnky96W5g2oeAMKU5lqRwwkEFIJKoJsl41Ys8yiNBvJ8aawQ8rr+8h0WJgVa8Q5y8yp+t5wQWVZ4k83z8I9EMIfVBECEm0GjAaJA2VtlNX0kmkf2T9IkkTvYBMhSVqb/c3pbgb8w+4uAW5fkMD3v/VQWu0ZjFOMcJNBJhzjUIX/8aYEbDEy3X3aex8vhxKGPZSPpL3N7quKLs63esOLjAZZwh9UR4CdrAw7duzYEWniRJuRrNlW5jgsLHLacMQZSY43YY8zoaiClYsSuTkzjqxUK2ajTGpiDBaTTFpiDBl2C3OStY8zyYzFJDMvxUqfTyHbZeOPCxMxGiRMBolYiwFZknAM5m0xyVhMBsxGmQy7ZcSbgJxJZlITY+juD7FgtpV/mReHMykGk0EmzqzlE2814EwyYzRIOOJjyHRYmJdsxWU3MzfZgtEgYZC15i19lhlZ1uJIToghLdGMQZaINRsxGCRSBmOyxhgwGWVijDIZdi3vSBRdy9KZovMQnSkKRGeKAtGZokB0pigQnSkKRGeKAtGZokB0pigQnSkKRGeKAtGZokB0pigQnSkKRGeKAtGZokB0pigQnen/AUT6f4UtKsg3AAAAJXRFWHRkYXRlOmNyZWF0ZQAyMDI0LTAxLTIxVDE1OjMwOjE0KzAwOjAw3KxkFQAAACV0RVh0ZGF0ZTptb2RpZnkAMjAyNC0wMS0yMVQxNTozMDoxNCswMDowMK3x3KkAAAAodEVYdGRhdGU6dGltZXN0YW1wADIwMjQtMDEtMjFUMTU6MzA6MzIrMDA6MDDbEc8xAAAAAElFTkSuQmCC;" vertex="1" parent="1">
          <mxGeometry x="364" y="469" width="100" height="100" as="geometry" />
        </mxCell>
      </root>
    </mxGraphModel>
  </diagram>
</mxfile>
